<mxfile host="app.diagrams.net" modified="2023-06-10T17:18:05.131Z" agent="Mozilla/5.0 (Windows NT 10.0; Win64; x64) AppleWebKit/537.36 (KHTML, like Gecko) Chrome/114.0.0.0 Safari/537.36" etag="xmXY616D-gsuYYKiHbDK" version="21.3.8" type="device">
  <diagram name="Seite-1" id="gQK6uvXpAxrNQpQa_rnP">
    <mxGraphModel dx="1185" dy="642" grid="1" gridSize="10" guides="1" tooltips="1" connect="1" arrows="1" fold="1" page="1" pageScale="1" pageWidth="827" pageHeight="1169" math="0" shadow="0">
      <root>
        <mxCell id="0" />
        <mxCell id="1" parent="0" />
        <mxCell id="Usuy1DKhzIv_TXZm6r44-3" value="durch einloggen oder registrieren" style="edgeStyle=orthogonalEdgeStyle;rounded=0;orthogonalLoop=1;jettySize=auto;html=1;" edge="1" parent="1" source="Usuy1DKhzIv_TXZm6r44-1" target="Usuy1DKhzIv_TXZm6r44-2">
          <mxGeometry relative="1" as="geometry" />
        </mxCell>
        <mxCell id="Usuy1DKhzIv_TXZm6r44-1" value="Startseite" style="ellipse;whiteSpace=wrap;html=1;" vertex="1" parent="1">
          <mxGeometry x="354" y="100" width="120" height="80" as="geometry" />
        </mxCell>
        <mxCell id="Usuy1DKhzIv_TXZm6r44-2" value="Home" style="ellipse;whiteSpace=wrap;html=1;" vertex="1" parent="1">
          <mxGeometry x="354" y="260" width="120" height="80" as="geometry" />
        </mxCell>
        <mxCell id="Usuy1DKhzIv_TXZm6r44-16" value="" style="edgeStyle=orthogonalEdgeStyle;rounded=0;orthogonalLoop=1;jettySize=auto;html=1;" edge="1" parent="1" source="Usuy1DKhzIv_TXZm6r44-4" target="Usuy1DKhzIv_TXZm6r44-15">
          <mxGeometry relative="1" as="geometry" />
        </mxCell>
        <mxCell id="Usuy1DKhzIv_TXZm6r44-4" value="Lernziele" style="ellipse;whiteSpace=wrap;html=1;" vertex="1" parent="1">
          <mxGeometry x="160" y="410" width="120" height="80" as="geometry" />
        </mxCell>
        <mxCell id="Usuy1DKhzIv_TXZm6r44-12" value="" style="edgeStyle=orthogonalEdgeStyle;rounded=0;orthogonalLoop=1;jettySize=auto;html=1;" edge="1" parent="1" source="Usuy1DKhzIv_TXZm6r44-6" target="Usuy1DKhzIv_TXZm6r44-11">
          <mxGeometry relative="1" as="geometry" />
        </mxCell>
        <mxCell id="Usuy1DKhzIv_TXZm6r44-6" value="Lernkategorien&lt;br&gt;" style="ellipse;whiteSpace=wrap;html=1;" vertex="1" parent="1">
          <mxGeometry x="560" y="410" width="120" height="80" as="geometry" />
        </mxCell>
        <mxCell id="Usuy1DKhzIv_TXZm6r44-7" value="" style="endArrow=none;html=1;rounded=0;entryX=0.5;entryY=1;entryDx=0;entryDy=0;exitX=0.5;exitY=0;exitDx=0;exitDy=0;edgeStyle=orthogonalEdgeStyle;endFill=0;startArrow=classic;startFill=1;" edge="1" parent="1" source="Usuy1DKhzIv_TXZm6r44-6" target="Usuy1DKhzIv_TXZm6r44-2">
          <mxGeometry width="50" height="50" relative="1" as="geometry">
            <mxPoint x="380" y="490" as="sourcePoint" />
            <mxPoint x="430" y="440" as="targetPoint" />
          </mxGeometry>
        </mxCell>
        <mxCell id="Usuy1DKhzIv_TXZm6r44-8" value="" style="endArrow=none;html=1;rounded=0;entryX=0.5;entryY=1;entryDx=0;entryDy=0;exitX=0.5;exitY=0;exitDx=0;exitDy=0;edgeStyle=orthogonalEdgeStyle;endFill=0;startArrow=classic;startFill=1;" edge="1" parent="1" source="Usuy1DKhzIv_TXZm6r44-4" target="Usuy1DKhzIv_TXZm6r44-2">
          <mxGeometry width="50" height="50" relative="1" as="geometry">
            <mxPoint x="304" y="430" as="sourcePoint" />
            <mxPoint x="354" y="380" as="targetPoint" />
          </mxGeometry>
        </mxCell>
        <mxCell id="Usuy1DKhzIv_TXZm6r44-9" value="" style="endArrow=none;html=1;rounded=0;entryX=0.5;entryY=1;entryDx=0;entryDy=0;exitX=0.5;exitY=0;exitDx=0;exitDy=0;startArrow=classic;startFill=1;" edge="1" parent="1" source="Usuy1DKhzIv_TXZm6r44-10" target="Usuy1DKhzIv_TXZm6r44-2">
          <mxGeometry width="50" height="50" relative="1" as="geometry">
            <mxPoint x="420" y="410" as="sourcePoint" />
            <mxPoint x="480" y="450" as="targetPoint" />
          </mxGeometry>
        </mxCell>
        <mxCell id="Usuy1DKhzIv_TXZm6r44-10" value="Profilansicht" style="ellipse;whiteSpace=wrap;html=1;" vertex="1" parent="1">
          <mxGeometry x="354" y="410" width="120" height="80" as="geometry" />
        </mxCell>
        <mxCell id="Usuy1DKhzIv_TXZm6r44-11" value="Tests/Fragen" style="ellipse;whiteSpace=wrap;html=1;" vertex="1" parent="1">
          <mxGeometry x="480" y="570" width="120" height="80" as="geometry" />
        </mxCell>
        <mxCell id="Usuy1DKhzIv_TXZm6r44-13" value="Zusammenfassungen" style="ellipse;whiteSpace=wrap;html=1;" vertex="1" parent="1">
          <mxGeometry x="640" y="570" width="120" height="80" as="geometry" />
        </mxCell>
        <mxCell id="Usuy1DKhzIv_TXZm6r44-14" value="" style="endArrow=classic;html=1;rounded=0;entryX=0.5;entryY=0;entryDx=0;entryDy=0;exitX=0.5;exitY=1;exitDx=0;exitDy=0;edgeStyle=orthogonalEdgeStyle;" edge="1" parent="1" source="Usuy1DKhzIv_TXZm6r44-6" target="Usuy1DKhzIv_TXZm6r44-13">
          <mxGeometry width="50" height="50" relative="1" as="geometry">
            <mxPoint x="430" y="500" as="sourcePoint" />
            <mxPoint x="480" y="450" as="targetPoint" />
          </mxGeometry>
        </mxCell>
        <mxCell id="Usuy1DKhzIv_TXZm6r44-15" value="Lernplan" style="ellipse;whiteSpace=wrap;html=1;" vertex="1" parent="1">
          <mxGeometry x="160" y="570" width="120" height="80" as="geometry" />
        </mxCell>
      </root>
    </mxGraphModel>
  </diagram>
</mxfile>
